<?xml version="1.0" standalone="no"?><!DOCTYPE svg PUBLIC "-//W3C//DTD SVG 1.1//EN" "http://www.w3.org/Graphics/SVG/1.1/DTD/svg11.dtd"><svg t="1569479779585" class="icon" viewBox="0 0 1024 1024" version="1.1" xmlns="http://www.w3.org/2000/svg" p-id="25978" width="128" height="128" xmlns:xlink="http://www.w3.org/1999/xlink"><defs><style type="text/css"></style></defs><path d="M960.1004 131.376H356.4244l33.986 12.648c26.94 10.026 44.912 36.08 44.72 64.83a67.354 67.354 0 0 1-2.032 16.112c-7.572 30.704-34.99 52.148-66.668 52.148l-0.47-0.002-147.888 0.014c-2.964 0.186-6.478 0.378-9.944 0.38a137.48 137.48 0 0 1-8.352-0.374l-0.244-0.018-90.79 0.004c-0.586 0.02-1.162 0.056-1.734 0.092-0.586 0.036-1.166 0.078-1.672 0.078a97.232 97.232 0 0 1-10.4-0.652l-7.302-0.87v671.01c0 35.236 28.666 63.902 63.9 63.902H960.1024c35.236 0 63.902-28.666 63.902-63.902V195.278c-0.002-35.236-28.668-63.902-63.904-63.902z m50.844 815.4c0 28.034-22.808 50.844-50.844 50.844H151.5324c-28.034 0-50.842-22.808-50.842-50.844V290.21c1.496 0.074 3.02 0.12 4.57 0.138 0.856 0 1.712-0.05 2.578-0.106l91.204-0.07c2.922 0.216 5.892 0.348 8.992 0.392 3.924 0 7.692-0.204 10.448-0.392h147.438l0.51 0.002c37.702 0 70.33-25.528 79.336-62.036a80.46 80.46 0 0 0 2.424-19.192c0.17-25.46-11.624-49.14-30.882-64.512h542.79c28.036 0 50.844 22.808 50.844 50.844v751.498z" fill="#4A555F" p-id="25979"></path><path d="M960.1004 159.67H450.2244a96.792 96.792 0 0 1 13.15 47.578h532.334v-11.97c-0.002-19.634-15.972-35.608-35.608-35.608z" fill="#71CCE0" p-id="25980"></path><path d="M439.4404 220.004h578.034v13.058H439.4404z" fill="#4A555F" p-id="25981"></path><path d="M424.6464 150.99c-15.34-15.544-35.814-24.184-57.652-24.33l-0.55-0.002c-6.986 0-13.936 0.916-20.752 2.728-10.798-66.258-67.856-115.608-135.846-116.064l-0.938-0.004c-48.134 0-93.144 25.34-118.264 66.356C39.0884 87.12 0.3544 131.28 0.0044 183.712c-0.188 28.29 10.648 54.958 30.52 75.096 19.87 20.136 46.396 31.33 74.83 31.518 0.846 0 1.678-0.046 2.512-0.098l91.186-0.064c2.076 0.126 6.69 0.172 10.126 0.172 2.078 0 7.064-0.018 9.542-0.172h147.182l0.552 0.002h0.002c44.774 0 81.448-36.432 81.748-81.208 0.148-21.838-8.22-42.424-23.558-57.968z m-58.192 126.118l-147.952-0.002-0.466 0.016c-1.316 0.094-4.794 0.156-8.858 0.156-4.79 0-8.376-0.078-9.442-0.156l-0.47-0.016-90.524 0.004c-0.562 0.016-1.12 0.05-1.676 0.084-0.566 0.036-1.134 0.074-1.766 0.074h-0.004c-24.8-0.164-48.052-9.978-65.474-27.632C22.4024 231.982 12.8984 208.6 13.0644 183.8c0.312-46.92 35.694-86.284 82.302-91.564l3.262-0.37 1.65-2.84c22.43-38.64 64.056-62.644 108.634-62.644l0.85 0.004c64.006 0.428 117.316 48.69 124.002 112.264l0.88 8.372 7.89-2.936c7.784-2.896 15.828-4.364 23.912-4.364l0.464 0.002c18.35 0.122 35.556 7.382 48.444 20.442 12.886 13.062 19.918 30.358 19.794 48.708-0.256 37.624-31.068 68.234-68.694 68.234z" fill="#4A555F" p-id="25982"></path><path d="M404.5044 170.864c-10.032-10.164-23.418-15.814-38.058-15.91-6.266 0-12.524 1.146-18.602 3.408l-26.296 9.782-2.938-27.906c-5.874-55.848-52.712-98.246-108.952-98.62l-0.752-0.004c-39.164 0-75.74 21.098-95.45 55.058l-5.496 9.468-10.878 1.232C58.1324 111.786 28.5624 144.684 28.2984 183.9c-0.14 20.734 7.804 40.276 22.368 55.034 14.56 14.758 34 22.96 54.634 23.098l0.812-0.044c0.722-0.044 1.446-0.086 2.176-0.108l91.838 0.004 0.664 0.04c0.782 0.048 3.988 0.12 8.386 0.12 4.404 0 7.108-0.072 7.776-0.118l0.774-0.056 148.732 0.002c29.276 0 53.256-23.824 53.452-53.102 0.094-14.28-5.378-27.74-15.406-37.906z" fill="#DFDFDF" p-id="25983"></path><path d="M397.3284 273.666h13.058v730.484h-13.058zM153.2484 369.248h43.432v13.058H153.2484zM225.5944 369.248h104.804v13.058h-104.804zM153.2484 463.982h43.432v13.058H153.2484zM225.5944 463.982h104.804v13.058h-104.804zM153.2484 558.714h43.432v13.058H153.2484zM225.5944 558.714h104.804v13.058h-104.804zM153.2484 653.446h43.432v13.058H153.2484zM225.5944 653.446h104.804v13.058h-104.804zM153.2484 748.178h43.432v13.058H153.2484zM225.5944 748.178h104.804v13.058h-104.804zM153.2484 842.91h43.432v13.058H153.2484zM225.5944 842.91h104.804v13.058h-104.804zM476.8244 343.834v63.89h169.24v-63.89h-169.24z m156.18 50.832H489.8824v-37.772h143.122v37.772z" fill="#4A555F" p-id="25984"></path><path d="M633.0044 343.834v63.89h169.24v-63.89h-169.24z m156.18 50.832H646.0624v-37.772h143.122v37.772z" fill="#4A555F" p-id="25985"></path><path d="M789.1844 343.834v63.89h169.238v-63.89h-169.238z m156.18 50.832h-143.12v-37.772h143.12v37.772zM476.8244 440.102v256.168H958.4224V440.102H476.8244z m468.54 243.11h-455.48V453.16h455.48v230.052z" fill="#4A555F" p-id="25986"></path><path d="M505.1204 468.396h425.006v199.58H505.1204z" fill="#F58E6F" p-id="25987"></path><path d="M476.8244 722.936v187.144h227.846v-187.144H476.8244z m214.786 174.084H489.8844v-161.026h201.728v161.026z" fill="#4A555F" p-id="25988"></path><path d="M505.1204 751.232h171.254v130.554h-171.254z" fill="#FFD452" p-id="25989"></path><path d="M734.9504 722.936v187.144h227.846v-187.144H734.9504z m214.786 174.084H748.0084v-161.026h201.728v161.026z" fill="#4A555F" p-id="25990"></path><path d="M763.2424 751.232h171.254v130.554H763.2424z" fill="#FFD452" p-id="25991"></path><path d="M268.5064 182.326a55.47 55.47 0 0 1-52.982 38.644 55.472 55.472 0 0 1-52.984-38.644l-12.434 3.99c9.156 28.538 35.444 47.714 65.418 47.714 29.972 0 56.26-19.176 65.416-47.714l-12.434-3.99zM215.5244 96.604c-30.444 0-56.854 19.558-65.726 48.668l12.494 3.806c7.182-23.576 28.574-39.416 53.232-39.416 24.656 0 46.048 15.84 53.23 39.416l12.494-3.806c-8.872-29.11-35.282-48.668-65.724-48.668z" fill="#4A555F" p-id="25992"></path><path d="M281.1824 115.336l-8.512 26.22-25.372-8.118-3.98 12.438 37.756 12.082 12.53-38.59zM152.5904 171.178l-16.38 37.85 11.984 5.186 11.304-26.12 26.112 10.634 4.926-12.092z" fill="#4A555F" p-id="25993"></path></svg>