<?xml version="1.0" encoding="iso-8859-1"?>
<!-- Generator: Adobe Illustrator 16.0.0, SVG Export Plug-In . SVG Version: 6.00 Build 0)  -->
<!DOCTYPE svg PUBLIC "-//W3C//DTD SVG 1.1//EN" "http://www.w3.org/Graphics/SVG/1.1/DTD/svg11.dtd">
<svg version="1.1"
	 id="svg16" xmlns:svg="http://www.w3.org/2000/svg" xmlns:rdf="http://www.w3.org/1999/02/22-rdf-syntax-ns#" xmlns:cc="http://creativecommons.org/ns#" xmlns:dc="http://purl.org/dc/elements/1.1/"
	 xmlns="http://www.w3.org/2000/svg" xmlns:xlink="http://www.w3.org/1999/xlink" x="0px" y="0px" width="160px" height="160px"
	 viewBox="587.775 429.445 160 160" style="enable-background:new 587.775 429.445 160 160;" xml:space="preserve">
<g id="g14">
	<g id="g6">
		<path id="path2" style="fill:#EB5F25;" d="M713.922,444.092c23.819,16.853,37.53,46.171,32.988,77.008
			c-6.435,43.697-47.092,73.917-90.792,67.48c-43.697-6.438-73.916-47.094-67.479-90.792c4.542-30.837,26.125-54.958,53.791-64.226
			l0.786,1.984c-18.9,8.774-33.157,26.592-36.418,48.743c-2.55,17.307,2.091,34.016,11.665,47.104
			c17.082,23.094,37.001,1.741,51.781,8.991c-13.109,16.146,11.203,17.639,25.096,12.04c19.72-8.486,34.717-26.692,38.074-49.484
			c3.262-22.152-5.252-43.323-20.819-57.176L713.922,444.092z"/>
		<path id="path4" style="fill:#fff;" d="M656.985,508.099L656.985,508.099l1.506-17.192c0.548-3.512,3.558-5.141,5.937-5.159
			c3.439-0.026,5.238,2.805,5.017,5.357l-0.899,10.272h-0.003l-1.181,13.509h0.003c5.222-0.091,10.064-1.871,10.54-6.787l0,0
			l0.587-6.722l1.325-15.142c0.578-6.593-4.996-10.179-8.978-10.202c-7.301-0.042-10.6,5.386-11.704,7.518l0.657-7.518h-9.948
			l-2.216,25.344l-1.183,13.509C651.664,514.795,656.51,513.015,656.985,508.099L656.985,508.099z M635.401,460.814
			c2.732,0,4.944,2.214,4.944,4.947c0,2.73-2.212,4.948-4.944,4.948c-2.733,0-4.946-2.218-4.946-4.948
			C630.455,463.028,632.668,460.814,635.401,460.814z M713.967,479.797c-0.648-0.567-1.555-1.149-2.708-1.718
			c-1.143-0.567-2.463-1.057-3.951-1.437c-1.488-0.384-3.067-0.595-4.722-0.605c-0.688-0.011-1.439,0.011-2.266,0.07
			c-0.816,0.058-1.714,0.209-2.668,0.464c-0.969,0.255-2,0.684-3.107,1.275c-1.368,0.757-2.5,1.637-3.4,2.658
			c-0.899,1.021-1.598,2.123-2.083,3.319c-0.484,1.184-0.774,2.389-0.883,3.631c-0.18,1.902,0.103,3.607,0.831,5.094
			c0.717,1.473,1.937,2.855,3.618,4.107c1.693,1.266,3.919,2.507,6.646,3.749c0.992,0.453,1.816,0.858,2.47,1.217
			c0.657,0.36,1.138,0.767,1.441,1.208c0.308,0.441,0.43,0.998,0.369,1.682c-0.025,0.453-0.19,0.939-0.481,1.44
			c-0.303,0.497-0.757,0.928-1.378,1.274c-0.632,0.362-1.457,0.547-2.478,0.559c-1.289-0.012-2.422-0.233-3.382-0.651
			c-0.958-0.417-1.62-1.192-2.514-1.575c-2.518-1.084-4.284,0.983-7.214,4.732c0.478,0.405,1.077,0.882,1.804,1.392
			c0.728,0.523,1.593,1.021,2.62,1.508c1.025,0.489,2.218,0.884,3.59,1.197c1.371,0.324,2.929,0.486,4.695,0.498
			c0.885,0,1.912-0.104,3.074-0.325c1.172-0.221,2.37-0.592,3.596-1.113c1.237-0.523,2.392-1.231,3.488-2.124
			c1.087-0.906,2.005-2.018,2.752-3.376c0.73-1.347,1.202-2.959,1.38-4.827c0.146-1.961-0.063-3.633-0.651-5.048
			c-0.576-1.405-1.405-2.598-2.484-3.598c-1.082-0.985-2.283-1.845-3.618-2.564s-2.679-1.369-4.029-1.949
			c-0.981-0.406-1.842-0.812-2.593-1.206c-0.751-0.407-1.329-0.836-1.727-1.322c-0.412-0.476-0.582-1.057-0.537-1.718
			c0.092-0.918,0.51-1.613,1.264-2.11c0.742-0.49,1.735-0.744,2.962-0.744c0.8-0.012,1.552,0.093,2.26,0.278
			c0.707,0.197,1.382,0.648,2.262,0.95C708.935,485.03,710.516,484.021,713.967,479.797z M626.147,514.886
			c5.222-0.091,10.066-1.871,10.543-6.787l2.806-32.065h-9.948L626.147,514.886z"/>
	</g>
</g>
</svg>
